<svg width="169" height="44" viewBox="0 0 169 44" fill="none" xmlns="http://www.w3.org/2000/svg">
<g filter="url(#filter0_d_256_216)">
<path d="M28.1665 25.016C28.1665 19.736 25.2865 17.24 18.0865 14.6C13.9585 13.016 13.0465 12.2 13.0465 10.52C13.0465 8.984 14.2465 7.928 16.7425 7.928C19.2865 7.928 22.4065 8.888 25.3825 10.616L26.6305 3.704C23.7505 2.312 20.9665 1.496 16.6465 1.496C10.3105 1.496 5.3185 4.904 5.3185 11.288C5.3185 16.76 8.1985 18.92 14.8225 21.464C19.4785 23.24 20.4385 24.104 20.4385 25.976C20.4385 27.944 18.8065 28.952 16.4545 28.952C13.1425 28.952 9.3505 27.704 5.9425 25.88L4.7425 32.888C8.1025 34.424 11.8465 35.384 16.3105 35.384C22.8865 35.384 28.1665 32.216 28.1665 25.016ZM51.6258 35V19.256C51.6258 13.256 48.4098 11.096 41.9297 11.096C38.0898 11.096 35.0658 11.816 32.3778 12.92L33.2418 18.392C35.7378 17.288 38.1858 16.616 40.8258 16.616C43.2258 16.616 44.3778 17.528 44.3778 19.592V20.024C35.1618 20.84 30.9378 23.432 30.9378 28.952C30.9378 33.224 33.5778 35.48 37.3218 35.48C40.5378 35.48 42.7938 34.088 44.7138 32.072L45.1938 35H51.6258ZM44.3778 28.52C43.0818 29.672 41.7378 30.296 40.3458 30.296C39.0018 30.296 38.0898 29.48 38.0898 27.992C38.0898 25.928 39.4338 24.296 44.3778 23.528V28.52ZM76.7699 23.192C76.7699 16.376 73.5539 11 66.3539 11C59.9699 11 55.2659 15.656 55.2659 23.336C55.2659 31.736 60.3059 35.48 67.3619 35.48C71.0579 35.48 74.1779 34.472 76.7219 32.84L76.0019 27.752C73.4099 29.24 70.8659 30.2 68.2739 30.2C65.1059 30.2 62.8979 28.76 62.5139 25.064H76.6259C76.7219 24.68 76.7699 23.912 76.7699 23.192ZM69.8579 21.08H62.4659C62.7059 17.48 64.1459 15.704 66.1619 15.704C68.3699 15.704 69.6179 17.528 69.8579 21.08ZM88.0923 35V0.343997L80.7963 1.496V35H88.0923ZM112.751 35V19.256C112.751 13.256 109.535 11.096 103.055 11.096C99.2148 11.096 96.1908 11.816 93.5028 12.92L94.3668 18.392C96.8628 17.288 99.3108 16.616 101.951 16.616C104.351 16.616 105.503 17.528 105.503 19.592V20.024C96.2868 20.84 92.0628 23.432 92.0628 28.952C92.0628 33.224 94.7028 35.48 98.4468 35.48C101.663 35.48 103.919 34.088 105.839 32.072L106.319 35H112.751ZM105.503 28.52C104.207 29.672 102.863 30.296 101.471 30.296C100.127 30.296 99.2148 29.48 99.2148 27.992C99.2148 25.928 100.559 24.296 105.503 23.528V28.52ZM138.471 35V18.296C138.471 13.736 136.167 11 131.799 11C128.823 11 126.567 12.632 124.455 14.696L123.927 11.48H117.543V35H124.791V19.544C126.087 18.248 127.383 17.432 128.775 17.432C130.503 17.432 131.175 18.584 131.175 20.264V35H138.471ZM164.444 35V0.343997L157.196 1.496V12.104C155.852 11.624 154.364 11.336 152.204 11.336C147.02 11.336 142.268 14.936 142.268 23.912C142.268 31.832 145.964 35.48 150.764 35.48C153.788 35.48 155.948 33.704 157.532 31.928L158.012 35H164.444ZM157.196 26.648C155.948 28.04 154.7 29.048 153.164 29.048C151.1 29.048 149.564 27.416 149.564 23.384C149.564 18.872 151.388 17 153.788 17C155.324 17 156.14 17.192 157.196 17.672V26.648Z" fill="white"/>
</g>
<defs>
<filter id="filter0_d_256_216" x="0.742432" y="0.343994" width="167.702" height="43.136" filterUnits="userSpaceOnUse" color-interpolation-filters="sRGB">
<feFlood flood-opacity="0" result="BackgroundImageFix"/>
<feColorMatrix in="SourceAlpha" type="matrix" values="0 0 0 0 0 0 0 0 0 0 0 0 0 0 0 0 0 0 127 0" result="hardAlpha"/>
<feOffset dy="4"/>
<feGaussianBlur stdDeviation="2"/>
<feComposite in2="hardAlpha" operator="out"/>
<feColorMatrix type="matrix" values="0 0 0 0 0 0 0 0 0 0 0 0 0 0 0 0 0 0 0.25 0"/>
<feBlend mode="normal" in2="BackgroundImageFix" result="effect1_dropShadow_256_216"/>
<feBlend mode="normal" in="SourceGraphic" in2="effect1_dropShadow_256_216" result="shape"/>
</filter>
</defs>
</svg>
